<svg xmlns="http://www.w3.org/2000/svg" version="1.1" xmlns:xlink="http://www.w3.org/1999/xlink" xmlns:svgjs="http://svgjs.com/svgjs" width="1440" height="560" preserveAspectRatio="none" viewBox="0 0 1440 560">
    <g mask="url(&quot;#SvgjsMask1000&quot;)" fill="none">
        <rect width="1440" height="560" x="0" y="0" fill="#0e2a47"></rect>
        <path d="M155.67 656.54C300.28 639.19 381.91 317.3 627.33 314.6 872.75 311.9 863.17 384.6 1099 384.6 1334.83 384.6 1451.45 314.79 1570.66 314.6" stroke="rgba(51,121,194,0.58)" stroke-width="2"></path>
        <path d="M276.05 581.87C408.15 573.71 503.65 328.36 740.32 327.47 976.99 326.58 972.46 397.47 1204.59 397.47 1436.73 397.47 1551.48 327.67 1668.86 327.47" stroke="rgba(51,121,194,0.58)" stroke-width="2"></path>
        <path d="M481.59 580.25C632.9 520.1 645.12 72.95 868.97 56.68 1092.82 40.41 1062.66 126.68 1256.35 126.68 1450.04 126.68 1545.32 56.96 1643.73 56.68" stroke="rgba(51,121,194,0.58)" stroke-width="2"></path>
        <path d="M679.24 639.78C816.11 611.78 874.44 261.26 1087.84 258.59 1301.24 255.92 1388.92 391.28 1496.44 392.99" stroke="rgba(51,121,194,0.58)" stroke-width="2"></path>
        <path d="M386.93 611.18C508.63 584.59 452.29 275.27 745.54 265.21 1038.79 255.15 1280.84 142.46 1462.77 142.01" stroke="rgba(51,121,194,0.58)" stroke-width="2"></path>
    </g>
    <defs>
        <mask id="SvgjsMask1000">
            <rect width="1440" height="560" fill="#ffffff"></rect>
        </mask>
    </defs>
</svg>