<svg xmlns="http://www.w3.org/2000/svg" version="1.1" xmlns:xlink="http://www.w3.org/1999/xlink" xmlns:svgjs="http://svgjs.com/svgjs" width="1440" height="560" preserveAspectRatio="none" viewBox="0 0 1440 560">
    <g mask="url(&quot;#SvgjsMask1002&quot;)" fill="none">
        <rect width="1440" height="560" x="0" y="0" fill="url(#SvgjsLinearGradient1003)"></rect>
        <path d="M623.173176370118 458.4569169120292L507.9158399954185 354.4796790375821 477.3915368730719 486.69496159136304z" fill="rgba(28, 83, 142, 0.4)" class="triangle-float3"></path>
        <path d="M1022.6750551082606 390.897732329097L1000.634429187078 314.03293514027064 896.3575463644297 385.52627261645773z" fill="rgba(28, 83, 142, 0.4)" class="triangle-float1"></path>
        <path d="M129.32897019810005 266.3939544198589L245.41523365481916 254.19279647439063 233.21407570935088 138.10653301767152 117.12781225263176 150.3076909631398z" fill="rgba(28, 83, 142, 0.4)" class="triangle-float3"></path>
        <path d="M695.173,334.907C751.584,335.222,808.914,319.55,840.289,272.668C875.32,220.324,886.846,150.942,854.432,96.938C822.733,44.125,756.769,30.817,695.173,30.894C633.749,30.971,567.919,44.494,536.603,97.335C504.821,150.962,518.231,219.215,552.838,271.063C583.779,317.419,639.441,334.596,695.173,334.907" fill="rgba(28, 83, 142, 0.4)" class="triangle-float3"></path>
        <path d="M379.5260892718079 559.1566777090924L280.0434453737717 452.47460320231045 173.36137086698977 551.9572471003466 272.844014765026 658.6393216071286z" fill="rgba(28, 83, 142, 0.4)" class="triangle-float3"></path>
        <path d="M638.2346057470202 107.02880858167585L579.7296287709732 200.65634335719545 673.3571635464929 259.16132033324243 731.8621405225398 165.5337855577228z" fill="rgba(28, 83, 142, 0.4)" class="triangle-float1"></path>
        <path d="M1145.5828690893832 32.6548761908506L1206.1926222306884 146.9077892166303 1267.7685379262489 52.089194022235944z" fill="rgba(28, 83, 142, 0.4)" class="triangle-float1"></path>
        <path d="M1221.306,518.444C1241.052,520.088,1260.623,509.015,1269.737,491.421C1278.284,474.921,1271.297,456.053,1261.943,439.997C1252.673,424.084,1239.711,408.926,1221.306,408.286C1201.994,407.615,1183.769,419.543,1175.462,436.991C1168.037,452.587,1176.61,469.32,1185.082,484.373C1193.796,499.856,1203.6,516.97,1221.306,518.444" fill="rgba(28, 83, 142, 0.4)" class="triangle-float2"></path>
        <path d="M372.7006226507505 489.7905414012867L454.3007762405166 540.8881725540288 458.70550465403204 456.8409476234208z" fill="rgba(28, 83, 142, 0.4)" class="triangle-float1"></path>
        <path d="M138.395,237.645C159.538,238.075,178.741,227.07,190.443,209.456C203.719,189.473,212.95,164.062,201.166,143.165C189.242,122.02,162.666,116.691,138.395,117.154C115.096,117.599,90.672,124.957,79.641,145.484C69.026,165.237,77.837,188.5,89.892,207.409C100.869,224.628,117.979,237.229,138.395,237.645" fill="rgba(28, 83, 142, 0.4)" class="triangle-float3"></path>
        <path d="M629.3972063663186-1.7888545898563137L617.0217458750141 76.34672783191951 740.4128497533301 55.84212735798854z" fill="rgba(28, 83, 142, 0.4)" class="triangle-float1"></path>
        <path d="M761.978,129.797C778.11,128.875,794.132,122.853,802.003,108.741C809.702,94.938,805.676,78.64,798.31,64.656C790.26,49.374,779.203,34.049,761.978,32.758C742.851,31.325,724.704,41.968,714.808,58.399C704.588,75.367,702.238,97.292,713.157,113.819C723.273,129.131,743.656,130.844,761.978,129.797" fill="rgba(28, 83, 142, 0.4)" class="triangle-float3"></path>
    </g>
    <defs>
        <mask id="SvgjsMask1002">
            <rect width="1440" height="560" fill="#ffffff"></rect>
        </mask>
        <linearGradient x1="15.28%" y1="-39.29%" x2="84.72%" y2="139.29%" gradientUnits="userSpaceOnUse" id="SvgjsLinearGradient1003">
            <stop stop-color="#0e2a47" offset="0"></stop>
            <stop stop-color="rgba(0, 69, 147, 1)" offset="1"></stop>
        </linearGradient>
        <style>
            @keyframes float1 {
                0%{transform: translate(0, 0)}
                50%{transform: translate(-10px, 0)}
                100%{transform: translate(0, 0)}
            }

            .triangle-float1 {
                animation: float1 5s infinite;
            }

            @keyframes float2 {
                0%{transform: translate(0, 0)}
                50%{transform: translate(-5px, -5px)}
                100%{transform: translate(0, 0)}
            }

            .triangle-float2 {
                animation: float2 4s infinite;
            }

            @keyframes float3 {
                0%{transform: translate(0, 0)}
                50%{transform: translate(0, -10px)}
                100%{transform: translate(0, 0)}
            }

            .triangle-float3 {
                animation: float3 6s infinite;
            }
        </style>
    </defs>
</svg>